<?xml version="1.0" standalone="no"?><!-- Generator: Adobe Fireworks CS6, Export SVG Extension by Aaron Beall (http://fireworks.abeall.com) . Version: 0.6.1  --><!DOCTYPE svg PUBLIC "-//W3C//DTD SVG 1.1//EN" "http://www.w3.org/Graphics/SVG/1.1/DTD/svg11.dtd"><svg viewBox="0 0 24 24" style="background-color:#ffffff00" version="1.1"	xmlns="http://www.w3.org/2000/svg" xmlns:xlink="http://www.w3.org/1999/xlink" xml:space="preserve"	x="0px" y="0px" width="24px" height="24px">	<g>		<path d="M 17.3271 9.3167 L 14.0507 9.3167 L 14.0507 7.1679 C 14.0507 6.3609 14.5856 6.1727 14.9623 6.1727 C 15.3381 6.1727 17.2744 6.1727 17.2744 6.1727 L 17.2744 2.625 L 14.0901 2.6126 C 10.5553 2.6126 9.7509 5.2586 9.7509 6.9519 L 9.7509 9.3167 L 7.7066 9.3167 L 7.7066 12.9724 L 9.7509 12.9724 C 9.7509 17.664 9.7509 23.3169 9.7509 23.3169 L 14.0507 23.3169 C 14.0507 23.3169 14.0507 17.6083 14.0507 12.9724 L 16.9521 12.9724 L 17.3271 9.3167 L 17.3271 9.3167 Z" fill="#ffffff"/>	</g></svg>