<?xml version="1.0" standalone="no"?><!-- Generator: Adobe Fireworks CS6, Export SVG Extension by Aaron Beall (http://fireworks.abeall.com) . Version: 0.6.1  --><!DOCTYPE svg PUBLIC "-//W3C//DTD SVG 1.1//EN" "http://www.w3.org/Graphics/SVG/1.1/DTD/svg11.dtd"><svg viewBox="0 0 24 24" style="background-color:#ffffff00" version="1.1"	xmlns="http://www.w3.org/2000/svg" xmlns:xlink="http://www.w3.org/1999/xlink" xml:space="preserve"	x="0px" y="0px" width="24px" height="24px">	<g>		<path d="M 22.3791 11.0794 L 19.1597 11.0794 L 19.1597 7.8609 C 19.1597 7.6153 18.9604 7.4156 18.7153 7.4156 L 17.7986 7.4156 C 17.5517 7.4156 17.3524 7.6153 17.3524 7.8609 L 17.3524 11.0794 L 14.133 11.0794 C 13.8879 11.0794 13.6877 11.2796 13.6877 11.5256 L 13.6877 12.4423 C 13.6877 12.6883 13.8879 12.8876 14.133 12.8876 L 17.3524 12.8876 L 17.3524 16.1079 C 17.3524 16.3539 17.5517 16.5531 17.7986 16.5531 L 18.7153 16.5531 C 18.9604 16.5531 19.1597 16.3539 19.1597 16.1079 L 19.1597 12.8871 L 22.3791 12.8871 C 22.6243 12.8871 22.8244 12.6879 22.8244 12.4419 L 22.8244 11.5251 C 22.8244 11.2791 22.6243 11.0794 22.3791 11.0794 L 22.3791 11.0794 Z" fill="#ffffff"/>		<path d="M 6.1616 5.5106 C 6.4629 5.1664 6.8576 4.9847 7.3007 4.9847 L 7.3509 4.9856 C 8.6027 5.0224 9.8006 6.4174 10.0209 8.0953 C 10.1447 9.0347 9.9356 9.918 9.4633 10.4563 C 9.1611 10.8013 8.772 10.983 8.3109 10.983 C 8.3109 10.983 8.3109 10.983 8.31 10.983 L 8.2899 10.983 C 7.0637 10.9453 5.8401 9.4971 5.6211 7.8214 C 5.4981 6.8846 5.6953 6.0424 6.1616 5.5106 L 6.1616 5.5106 ZM 4.407 18.0921 C 4.407 16.7606 6.0986 15.5927 8.0267 15.5927 L 8.0786 15.5927 C 8.4981 15.5979 8.9074 15.6596 9.2931 15.7779 C 9.4256 15.8691 9.5533 15.9561 9.6759 16.0397 C 10.569 16.6483 11.1591 17.0499 11.3233 17.6944 C 11.3619 17.8569 11.3811 18.0193 11.3811 18.1766 C 11.3811 19.8347 10.1447 20.6751 7.7049 20.6751 C 5.8556 20.6751 4.407 19.5411 4.407 18.0921 L 4.407 18.0921 ZM 11.5603 13.902 C 10.8831 13.4224 10.2677 12.7191 10.257 12.5031 C 10.257 12.1097 10.2921 11.9216 11.1746 11.2341 C 12.3154 10.341 12.9437 9.1667 12.9437 7.926 C 12.9437 6.801 12.6 5.8016 12.015 5.0996 L 12.4689 5.0996 C 12.5627 5.0996 12.6549 5.0704 12.7299 5.0156 L 13.9963 4.098 C 14.1536 3.9853 14.2196 3.7843 14.1596 3.6004 C 14.0991 3.417 13.9294 3.2919 13.7361 3.2919 L 8.0721 3.2919 C 7.4524 3.2919 6.8229 3.4011 6.2049 3.6137 C 4.1409 4.3256 2.6974 6.0844 2.6974 7.89 C 2.6974 10.4481 4.6791 12.387 7.3281 12.4479 C 7.2763 12.6506 7.2501 12.8503 7.2501 13.0461 C 7.2501 13.4404 7.35 13.8137 7.5557 14.1746 C 7.5317 14.1746 7.5086 14.1746 7.4829 14.1746 C 4.9577 14.1746 2.6786 15.4136 1.8133 17.2573 C 1.5879 17.7369 1.473 18.2216 1.473 18.7003 C 1.473 19.1657 1.5926 19.6136 1.827 20.0344 C 2.3709 21.0073 3.5387 21.762 5.1171 22.1606 C 5.9319 22.3663 6.8074 22.4713 7.7164 22.4713 C 8.5333 22.4713 9.312 22.3659 10.032 22.1576 C 12.2769 21.5057 13.7284 19.8531 13.7284 17.9456 C 13.728 16.1151 13.1396 15.0193 11.5603 13.902 L 11.5603 13.902 Z" fill="#ffffff"/>	</g></svg>