<?xml version="1.0" standalone="no"?><!-- Generator: Adobe Fireworks CS6, Export SVG Extension by Aaron Beall (http://fireworks.abeall.com) . Version: 0.6.1  --><!DOCTYPE svg PUBLIC "-//W3C//DTD SVG 1.1//EN" "http://www.w3.org/Graphics/SVG/1.1/DTD/svg11.dtd"><svg viewBox="0 0 24 24" style="background-color:#ffffff00" version="1.1"	xmlns="http://www.w3.org/2000/svg" xmlns:xlink="http://www.w3.org/1999/xlink" xml:space="preserve"	x="0px" y="0px" width="24px" height="24px">	<g>		<path d="M 12.8876 11.6147 L 12.8876 11.5817 C 12.8807 11.5929 12.8734 11.604 12.8661 11.6147 L 12.8876 11.6147 L 12.8876 11.6147 Z" fill="#ffffff"/>		<path d="M 19.4546 19.8446 L 16.2553 19.8446 L 16.2553 14.694 C 16.2553 13.4006 15.7924 12.5177 14.6349 12.5177 C 13.7511 12.5177 13.2249 13.113 12.993 13.6881 C 12.9086 13.8934 12.888 14.1806 12.888 14.4686 L 12.888 19.8441 L 9.6887 19.8441 C 9.6887 19.8441 9.7307 11.121 9.6887 10.2189 L 12.888 10.2189 L 12.888 11.5813 C 13.3131 10.9256 14.0734 9.9917 15.7719 9.9917 C 17.8766 9.9917 19.455 11.3679 19.455 14.3246 L 19.455 19.8446 L 19.4546 19.8446 ZM 6.3184 8.9044 L 6.297 8.9044 C 5.2239 8.9044 4.5296 8.1651 4.5296 7.2416 C 4.5296 6.2974 5.2453 5.5787 6.3394 5.5787 C 7.434 5.5787 8.1073 6.2974 8.1287 7.2416 C 8.1287 8.1651 7.4336 8.9044 6.3184 8.9044 L 6.3184 8.9044 ZM 7.9179 19.8446 L 4.7186 19.8446 L 4.7186 10.2193 L 7.9179 10.2193 L 7.9179 19.8446 L 7.9179 19.8446 ZM 21.1136 2.0001 L 3.0621 2.0001 C 2.1981 2.0001 1.4974 2.6841 1.4974 3.5271 L 1.4974 21.7899 C 1.4974 22.6324 2.1981 23.3164 3.0621 23.3164 L 21.1136 23.3164 C 21.9789 23.3164 22.6796 22.632 22.6796 21.7899 L 22.6796 3.5271 C 22.6796 2.6837 21.9784 2.0001 21.1136 2.0001 L 21.1136 2.0001 Z" fill="#ffffff"/>	</g></svg>