<?xml version="1.0" standalone="no"?><!-- Generator: Adobe Fireworks CS6, Export SVG Extension by Aaron Beall (http://fireworks.abeall.com) . Version: 0.6.1  --><!DOCTYPE svg PUBLIC "-//W3C//DTD SVG 1.1//EN" "http://www.w3.org/Graphics/SVG/1.1/DTD/svg11.dtd"><svg viewBox="0 0 24 24" style="background-color:#ffffff00" version="1.1"	xmlns="http://www.w3.org/2000/svg" xmlns:xlink="http://www.w3.org/1999/xlink" xml:space="preserve"	x="0px" y="0px" width="24px" height="24px">	<g>		<path d="M 13.0174 1.9809 C 7.1949 1.9809 4.2587 6.1551 4.2587 9.6369 C 4.2587 11.7446 5.0567 13.6196 6.768 14.3177 C 7.0487 14.4334 7.3003 14.322 7.3817 14.0113 C 7.4383 13.797 7.5724 13.2544 7.632 13.0277 C 7.7139 12.7204 7.6821 12.6133 7.4554 12.3446 C 6.9621 11.763 6.6463 11.0096 6.6463 9.9416 C 6.6463 6.8447 8.9636 4.0723 12.6801 4.0723 C 15.9711 4.0723 17.7793 6.0831 17.7793 8.7681 C 17.7793 12.3021 16.2154 15.2846 13.8943 15.2846 C 12.612 15.2846 11.6529 14.2247 11.9597 12.924 C 12.3279 11.3713 13.0414 9.6964 13.0414 8.5749 C 13.0414 7.572 12.5027 6.7354 11.3889 6.7354 C 10.0783 6.7354 9.0253 8.0914 9.0253 9.9073 C 9.0253 11.064 9.4161 11.8466 9.4161 11.8466 C 9.4161 11.8466 8.0751 17.5294 7.8399 18.5246 C 7.3719 20.5067 7.7696 22.9359 7.8034 23.181 C 7.8231 23.3267 8.01 23.3619 8.0949 23.2521 C 8.2153 23.094 9.777 21.1671 10.3071 19.2411 C 10.4576 18.6964 11.169 15.873 11.169 15.873 C 11.595 16.6856 12.8396 17.3996 14.163 17.3996 C 18.102 17.3996 20.775 13.8086 20.775 9.0017 C 20.7754 5.3661 17.6966 1.9809 13.0174 1.9809 L 13.0174 1.9809 Z" fill="#ffffff"/>	</g></svg>