<?xml version="1.0" standalone="no"?><!-- Generator: Adobe Fireworks CS6, Export SVG Extension by Aaron Beall (http://fireworks.abeall.com) . Version: 0.6.1  --><!DOCTYPE svg PUBLIC "-//W3C//DTD SVG 1.1//EN" "http://www.w3.org/Graphics/SVG/1.1/DTD/svg11.dtd"><svg viewBox="0 0 24 24" style="background-color:#ffffff00" version="1.1"	xmlns="http://www.w3.org/2000/svg" xmlns:xlink="http://www.w3.org/1999/xlink" xml:space="preserve"	x="0px" y="0px" width="24px" height="24px">	<g>		<path d="M 22.6444 6.4564 C 21.8683 6.8014 21.033 7.0341 20.1566 7.1383 C 21.0514 6.6026 21.7376 5.754 22.0611 4.7417 C 21.2241 5.2384 20.2976 5.5989 19.3106 5.7934 C 18.5207 4.9517 17.3949 4.4254 16.149 4.4254 C 13.7571 4.4254 11.8179 6.3647 11.8179 8.757 C 11.8179 9.096 11.856 9.4264 11.9301 9.744 C 8.3301 9.5631 5.1381 7.839 3.0017 5.2183 C 2.6289 5.8577 2.4154 6.6017 2.4154 7.3963 C 2.4154 8.8989 3.18 10.2249 4.3423 11.0014 C 3.6326 10.9787 2.9644 10.7837 2.3803 10.4593 C 2.3799 10.4773 2.3799 10.4957 2.3799 10.5141 C 2.3799 12.6124 3.873 14.3627 5.8547 14.7613 C 5.4913 14.8599 5.1086 14.913 4.7134 14.913 C 4.434 14.913 4.1627 14.886 3.8983 14.835 C 4.4499 16.5557 6.0493 17.8084 7.9444 17.8431 C 6.462 19.005 4.5947 19.6976 2.565 19.6976 C 2.2157 19.6976 1.8707 19.677 1.5317 19.6367 C 3.4491 20.8663 5.7257 21.5829 8.1716 21.5829 C 16.1391 21.5829 20.4956 14.9829 20.4956 9.2589 C 20.4956 9.0711 20.4917 8.8839 20.4836 8.6979 C 21.3296 8.0884 22.0641 7.3251 22.6444 6.4564 L 22.6444 6.4564 Z" fill="#ffffff"/>	</g></svg>